<mxfile host="app.diagrams.net" agent="Mozilla/5.0 (Windows NT 10.0; Win64; x64) AppleWebKit/537.36 (KHTML, like Gecko) Chrome/131.0.0.0 Safari/537.36" version="24.9.2">
  <diagram name="Página-1" id="TwMZ0yBoLAaEX1N1fJw7">
    <mxGraphModel dx="1195" dy="643" grid="1" gridSize="10" guides="1" tooltips="1" connect="1" arrows="1" fold="1" page="1" pageScale="1" pageWidth="827" pageHeight="1169" math="0" shadow="0">
      <root>
        <mxCell id="0" />
        <mxCell id="1" parent="0" />
        <mxCell id="WlihqJPeNZVh2GD4qlGM-5" style="edgeStyle=orthogonalEdgeStyle;rounded=0;orthogonalLoop=1;jettySize=auto;html=1;" edge="1" parent="1" source="WlihqJPeNZVh2GD4qlGM-1" target="WlihqJPeNZVh2GD4qlGM-4">
          <mxGeometry relative="1" as="geometry" />
        </mxCell>
        <mxCell id="WlihqJPeNZVh2GD4qlGM-22" style="edgeStyle=orthogonalEdgeStyle;rounded=0;orthogonalLoop=1;jettySize=auto;html=1;entryX=0;entryY=0.5;entryDx=0;entryDy=0;" edge="1" parent="1" source="WlihqJPeNZVh2GD4qlGM-1" target="WlihqJPeNZVh2GD4qlGM-21">
          <mxGeometry relative="1" as="geometry">
            <mxPoint x="200" y="480" as="targetPoint" />
            <Array as="points">
              <mxPoint x="150" y="330" />
              <mxPoint x="200" y="330" />
              <mxPoint x="200" y="468" />
            </Array>
          </mxGeometry>
        </mxCell>
        <mxCell id="WlihqJPeNZVh2GD4qlGM-1" value="Médico" style="rounded=1;whiteSpace=wrap;html=1;" vertex="1" parent="1">
          <mxGeometry x="90" y="250" width="120" height="60" as="geometry" />
        </mxCell>
        <mxCell id="WlihqJPeNZVh2GD4qlGM-6" style="edgeStyle=orthogonalEdgeStyle;rounded=0;orthogonalLoop=1;jettySize=auto;html=1;entryX=1;entryY=0.5;entryDx=0;entryDy=0;" edge="1" parent="1" source="WlihqJPeNZVh2GD4qlGM-2" target="WlihqJPeNZVh2GD4qlGM-4">
          <mxGeometry relative="1" as="geometry">
            <Array as="points">
              <mxPoint x="510" y="280" />
              <mxPoint x="510" y="280" />
            </Array>
          </mxGeometry>
        </mxCell>
        <mxCell id="WlihqJPeNZVh2GD4qlGM-7" style="edgeStyle=orthogonalEdgeStyle;rounded=0;orthogonalLoop=1;jettySize=auto;html=1;exitX=0.556;exitY=0.972;exitDx=0;exitDy=0;exitPerimeter=0;entryX=0.556;entryY=0.017;entryDx=0;entryDy=0;entryPerimeter=0;" edge="1" parent="1" source="WlihqJPeNZVh2GD4qlGM-2" target="WlihqJPeNZVh2GD4qlGM-3">
          <mxGeometry relative="1" as="geometry">
            <mxPoint x="630" y="450" as="targetPoint" />
            <Array as="points" />
          </mxGeometry>
        </mxCell>
        <mxCell id="WlihqJPeNZVh2GD4qlGM-2" value="Paciente" style="rounded=1;whiteSpace=wrap;html=1;" vertex="1" parent="1">
          <mxGeometry x="570" y="250" width="120" height="60" as="geometry" />
        </mxCell>
        <mxCell id="WlihqJPeNZVh2GD4qlGM-12" style="edgeStyle=orthogonalEdgeStyle;rounded=0;orthogonalLoop=1;jettySize=auto;html=1;" edge="1" parent="1" source="WlihqJPeNZVh2GD4qlGM-3">
          <mxGeometry relative="1" as="geometry">
            <mxPoint x="610" y="310" as="targetPoint" />
            <Array as="points">
              <mxPoint x="610" y="310" />
            </Array>
          </mxGeometry>
        </mxCell>
        <mxCell id="WlihqJPeNZVh2GD4qlGM-3" value="Receita" style="rounded=1;whiteSpace=wrap;html=1;" vertex="1" parent="1">
          <mxGeometry x="570" y="470" width="120" height="60" as="geometry" />
        </mxCell>
        <mxCell id="WlihqJPeNZVh2GD4qlGM-4" value="&lt;font style=&quot;font-size: 16px;&quot;&gt;consulta&lt;/font&gt;" style="rhombus;whiteSpace=wrap;html=1;" vertex="1" parent="1">
          <mxGeometry x="310" y="240" width="160" height="80" as="geometry" />
        </mxCell>
        <mxCell id="WlihqJPeNZVh2GD4qlGM-8" value="1,N" style="text;html=1;align=center;verticalAlign=middle;resizable=0;points=[];autosize=1;strokeColor=none;fillColor=none;" vertex="1" parent="1">
          <mxGeometry x="220" y="250" width="40" height="30" as="geometry" />
        </mxCell>
        <mxCell id="WlihqJPeNZVh2GD4qlGM-9" value="1,N" style="text;html=1;align=center;verticalAlign=middle;resizable=0;points=[];autosize=1;strokeColor=none;fillColor=none;" vertex="1" parent="1">
          <mxGeometry x="530" y="250" width="40" height="30" as="geometry" />
        </mxCell>
        <mxCell id="WlihqJPeNZVh2GD4qlGM-10" value="1,N" style="text;html=1;align=center;verticalAlign=middle;resizable=0;points=[];autosize=1;strokeColor=none;fillColor=none;" vertex="1" parent="1">
          <mxGeometry x="640" y="320" width="40" height="30" as="geometry" />
        </mxCell>
        <mxCell id="WlihqJPeNZVh2GD4qlGM-13" value="1,1" style="text;html=1;align=center;verticalAlign=middle;resizable=0;points=[];autosize=1;strokeColor=none;fillColor=none;" vertex="1" parent="1">
          <mxGeometry x="570" y="428" width="40" height="30" as="geometry" />
        </mxCell>
        <mxCell id="WlihqJPeNZVh2GD4qlGM-16" style="edgeStyle=orthogonalEdgeStyle;rounded=0;orthogonalLoop=1;jettySize=auto;html=1;" edge="1" parent="1" source="WlihqJPeNZVh2GD4qlGM-15">
          <mxGeometry relative="1" as="geometry">
            <mxPoint x="120" y="320" as="targetPoint" />
          </mxGeometry>
        </mxCell>
        <mxCell id="WlihqJPeNZVh2GD4qlGM-15" value="&lt;ul&gt;&lt;li&gt;Nome&lt;/li&gt;&lt;li&gt;Consultório&lt;/li&gt;&lt;li&gt;Horário&lt;/li&gt;&lt;/ul&gt;" style="text;html=1;align=left;verticalAlign=middle;resizable=0;points=[];autosize=1;strokeColor=none;fillColor=none;" vertex="1" parent="1">
          <mxGeometry x="60" y="348" width="120" height="80" as="geometry" />
        </mxCell>
        <mxCell id="WlihqJPeNZVh2GD4qlGM-18" style="edgeStyle=orthogonalEdgeStyle;rounded=0;orthogonalLoop=1;jettySize=auto;html=1;entryX=0.417;entryY=0;entryDx=0;entryDy=0;entryPerimeter=0;" edge="1" parent="1" source="WlihqJPeNZVh2GD4qlGM-17" target="WlihqJPeNZVh2GD4qlGM-2">
          <mxGeometry relative="1" as="geometry">
            <mxPoint x="620" y="155" as="targetPoint" />
            <Array as="points">
              <mxPoint x="651" y="155" />
              <mxPoint x="620" y="156" />
            </Array>
          </mxGeometry>
        </mxCell>
        <mxCell id="WlihqJPeNZVh2GD4qlGM-17" value="&lt;ul&gt;&lt;li&gt;nome&lt;/li&gt;&lt;li&gt;sintomas&lt;/li&gt;&lt;li&gt;&amp;nbsp;idade&lt;/li&gt;&lt;li&gt;&amp;nbsp;genero&lt;/li&gt;&lt;li&gt;&amp;nbsp;peso&lt;/li&gt;&lt;li&gt;&amp;nbsp;altura&amp;nbsp;&lt;/li&gt;&lt;li&gt;condiçoes&lt;/li&gt;&lt;li&gt;&amp;nbsp;laudo&lt;/li&gt;&lt;/ul&gt;" style="text;html=1;align=left;verticalAlign=middle;resizable=0;points=[];autosize=1;strokeColor=none;fillColor=none;" vertex="1" parent="1">
          <mxGeometry x="680" y="80" width="120" height="150" as="geometry" />
        </mxCell>
        <mxCell id="WlihqJPeNZVh2GD4qlGM-20" style="edgeStyle=orthogonalEdgeStyle;rounded=0;orthogonalLoop=1;jettySize=auto;html=1;entryX=0;entryY=0.75;entryDx=0;entryDy=0;" edge="1" parent="1" source="WlihqJPeNZVh2GD4qlGM-19" target="WlihqJPeNZVh2GD4qlGM-3">
          <mxGeometry relative="1" as="geometry" />
        </mxCell>
        <mxCell id="WlihqJPeNZVh2GD4qlGM-19" value="&lt;ul&gt;&lt;li&gt;Quantidades&lt;/li&gt;&lt;li&gt;&amp;nbsp;Tratamento&amp;nbsp;&lt;/li&gt;&lt;li&gt;nome do remedio&lt;/li&gt;&lt;/ul&gt;" style="text;html=1;align=left;verticalAlign=middle;resizable=0;points=[];autosize=1;strokeColor=none;fillColor=none;" vertex="1" parent="1">
          <mxGeometry x="450" y="550" width="160" height="80" as="geometry" />
        </mxCell>
        <mxCell id="WlihqJPeNZVh2GD4qlGM-23" style="edgeStyle=orthogonalEdgeStyle;rounded=0;orthogonalLoop=1;jettySize=auto;html=1;entryX=0;entryY=0.25;entryDx=0;entryDy=0;" edge="1" parent="1" source="WlihqJPeNZVh2GD4qlGM-21" target="WlihqJPeNZVh2GD4qlGM-3">
          <mxGeometry relative="1" as="geometry" />
        </mxCell>
        <mxCell id="WlihqJPeNZVh2GD4qlGM-21" value="&lt;font style=&quot;font-size: 16px;&quot;&gt;prescreve&lt;/font&gt;" style="rhombus;whiteSpace=wrap;html=1;" vertex="1" parent="1">
          <mxGeometry x="320" y="428" width="160" height="80" as="geometry" />
        </mxCell>
        <mxCell id="WlihqJPeNZVh2GD4qlGM-24" value="1,N" style="text;html=1;align=center;verticalAlign=middle;resizable=0;points=[];autosize=1;strokeColor=none;fillColor=none;" vertex="1" parent="1">
          <mxGeometry x="520" y="448" width="40" height="30" as="geometry" />
        </mxCell>
        <mxCell id="WlihqJPeNZVh2GD4qlGM-25" value="yep" style="text;html=1;align=center;verticalAlign=middle;resizable=0;points=[];autosize=1;strokeColor=none;fillColor=none;" vertex="1" parent="1">
          <mxGeometry x="100" y="658" width="40" height="30" as="geometry" />
        </mxCell>
      </root>
    </mxGraphModel>
  </diagram>
</mxfile>
